<svg width="478" height="120" viewBox="0 0 478 120" fill="none" xmlns="http://www.w3.org/2000/svg">
<g clip-path="url(#clip0_180_240)">
<path d="M0 2.39677C0 1.07307 1.07307 0 2.39677 0H117.442C118.765 0 119.839 1.07307 119.839 2.39677V117.442C119.839 118.765 118.765 119.839 117.442 119.839H2.39677C1.07307 119.839 0 118.765 0 117.442V2.39677Z" fill="#0A0A0A"/>
<path d="M88 77L42 31.0005L87.9958 31L88 77Z" fill="url(#paint0_linear_180_240)"/>
<path d="M65 100L19 54.0005L64.9958 54L65 100Z" fill="url(#paint1_linear_180_240)"/>
</g>
<path d="M172.439 87.7693C161.639 87.7693 154.839 81.4693 154.839 73.1693C154.839 63.1693 161.639 57.9693 177.239 56.2693L187.539 55.2693V53.9693C187.539 48.0693 183.239 44.5693 176.839 44.5693C170.839 44.5693 166.539 47.4693 165.739 53.3693H154.939C156.439 43.0693 165.339 35.7693 176.839 35.7693C189.439 35.7693 198.439 42.8693 198.439 55.2693V86.9693H187.539V79.6693C185.339 84.1693 179.239 87.7693 172.439 87.7693ZM187.539 63.3693L177.739 64.5693C169.339 65.5693 165.739 67.6693 165.739 72.6693C165.739 76.9693 169.039 79.3693 174.239 79.3693C182.139 79.3693 187.539 72.7693 187.539 64.7693V63.3693Z" fill="#0A0A0A"/>
<path d="M206.971 86.9693V36.5693H217.871V44.2693C220.771 39.5693 226.571 35.7693 233.871 35.7693C241.371 35.7693 247.371 39.6693 249.271 45.2693C253.071 39.6693 259.371 35.7693 266.371 35.7693C277.071 35.7693 284.471 42.8693 284.471 53.9693V86.9693H273.571V56.3693C273.571 49.5693 269.971 45.3693 263.971 45.3693C255.971 45.3693 251.171 52.8693 251.171 62.1693V86.9693H240.271V56.3693C240.271 49.5693 236.771 45.3693 230.671 45.3693C222.671 45.3693 217.871 52.8693 217.871 62.1693V86.9693H206.971Z" fill="#0A0A0A"/>
<path d="M293.033 105.169V36.5693H304.033V43.5693C306.933 38.8693 313.433 35.7693 320.433 35.7693C335.333 35.7693 345.133 46.0693 345.133 61.7693C345.133 77.4693 335.333 87.7693 320.433 87.7693C313.533 87.7693 306.933 84.5693 304.033 79.8693V105.169H293.033ZM319.033 78.3693C327.733 78.3693 334.033 71.5693 334.033 61.7693C334.033 51.8693 327.733 45.1693 319.033 45.1693C310.233 45.1693 304.033 51.8693 304.033 61.7693C304.033 71.4693 310.233 78.3693 319.033 78.3693Z" fill="#0A0A0A"/>
<path d="M352.557 86.9693V16.1693H363.457V86.9693H352.557Z" fill="#0A0A0A"/>
<path d="M374.701 86.9693V36.5693H385.601V86.9693H374.701ZM380.201 28.9693C376.001 28.9693 372.901 25.9693 372.901 21.8693C372.901 17.7693 376.001 14.7693 380.201 14.7693C384.401 14.7693 387.601 17.7693 387.601 21.8693C387.601 25.9693 384.401 28.9693 380.201 28.9693Z" fill="#0A0A0A"/>
<path d="M401.646 86.9693V45.5693H393.346V36.5693H401.646V32.2693C401.646 21.0693 407.946 14.6693 417.646 14.6693C420.646 14.6693 423.746 15.1693 425.146 15.7693V25.2693C423.646 24.5693 421.646 24.1693 419.946 24.1693C415.546 24.1693 412.646 27.0693 412.646 32.6693V36.5693H424.946V45.5693H412.646V86.9693H401.646Z" fill="#0A0A0A"/>
<path d="M438.814 105.169L446.714 86.2693L427.014 36.5693H438.814L452.414 72.2693L465.914 36.5693H477.414L450.314 105.169H438.814Z" fill="#0A0A0A"/>
<defs>
<linearGradient id="paint0_linear_180_240" x1="88" y1="31" x2="65" y2="54" gradientUnits="userSpaceOnUse">
<stop stop-color="white"/>
<stop offset="1" stop-color="white" stop-opacity="0.8"/>
</linearGradient>
<linearGradient id="paint1_linear_180_240" x1="64.992" y1="53.9962" x2="42" y2="77" gradientUnits="userSpaceOnUse">
<stop stop-color="white" stop-opacity="0.5"/>
<stop offset="1" stop-color="white" stop-opacity="0.3"/>
</linearGradient>
<clipPath id="clip0_180_240">
<rect width="119.839" height="119.839" fill="white"/>
</clipPath>
</defs>
</svg>
